<mxfile host="app.diagrams.net" modified="2023-07-18T04:53:23.135Z" agent="Mozilla/5.0 (Windows NT 10.0; Win64; x64; rv:109.0) Gecko/20100101 Firefox/115.0" etag="k1S_tNAa-oztgpQP3dXg" version="21.6.2" type="device">
  <diagram name="Page-1" id="tsFg7TFfxQmS6hFIQ88X">
    <mxGraphModel dx="1434" dy="746" grid="0" gridSize="10" guides="1" tooltips="1" connect="1" arrows="1" fold="1" page="1" pageScale="1" pageWidth="850" pageHeight="1100" math="0" shadow="0">
      <root>
        <mxCell id="0" />
        <mxCell id="1" parent="0" />
        <mxCell id="ytr1R9ynz4VI7aFrwAhI-1" value="AWS Cloud" style="points=[[0,0],[0.25,0],[0.5,0],[0.75,0],[1,0],[1,0.25],[1,0.5],[1,0.75],[1,1],[0.75,1],[0.5,1],[0.25,1],[0,1],[0,0.75],[0,0.5],[0,0.25]];outlineConnect=0;gradientColor=none;html=1;whiteSpace=wrap;fontSize=12;fontStyle=0;container=1;pointerEvents=0;collapsible=0;recursiveResize=0;shape=mxgraph.aws4.group;grIcon=mxgraph.aws4.group_aws_cloud_alt;strokeColor=#232F3E;fillColor=none;verticalAlign=top;align=left;spacingLeft=30;fontColor=#232F3E;dashed=0;rounded=1;" parent="1" vertex="1">
          <mxGeometry x="40" y="40" width="760" height="590" as="geometry" />
        </mxCell>
        <mxCell id="ytr1R9ynz4VI7aFrwAhI-7" value="VPC" style="points=[[0,0],[0.25,0],[0.5,0],[0.75,0],[1,0],[1,0.25],[1,0.5],[1,0.75],[1,1],[0.75,1],[0.5,1],[0.25,1],[0,1],[0,0.75],[0,0.5],[0,0.25]];outlineConnect=0;gradientColor=none;html=1;whiteSpace=wrap;fontSize=12;fontStyle=0;container=1;pointerEvents=0;collapsible=0;recursiveResize=0;shape=mxgraph.aws4.group;grIcon=mxgraph.aws4.group_vpc;strokeColor=#248814;fillColor=none;verticalAlign=top;align=left;spacingLeft=30;fontColor=#AAB7B8;dashed=0;rounded=1;" parent="ytr1R9ynz4VI7aFrwAhI-1" vertex="1">
          <mxGeometry x="60" y="20" width="640" height="550" as="geometry" />
        </mxCell>
        <mxCell id="ytr1R9ynz4VI7aFrwAhI-9" value="" style="sketch=0;outlineConnect=0;fontColor=#232F3E;gradientColor=none;fillColor=#2E27AD;strokeColor=none;dashed=0;verticalLabelPosition=bottom;verticalAlign=top;align=center;html=1;fontSize=12;fontStyle=0;aspect=fixed;pointerEvents=1;shape=mxgraph.aws4.rds_mysql_instance;rounded=1;" parent="ytr1R9ynz4VI7aFrwAhI-7" vertex="1">
          <mxGeometry x="293" y="320" width="64" height="64" as="geometry" />
        </mxCell>
        <mxCell id="ytr1R9ynz4VI7aFrwAhI-28" style="edgeStyle=orthogonalEdgeStyle;rounded=1;orthogonalLoop=1;jettySize=auto;html=1;strokeColor=default;dashed=1;" parent="ytr1R9ynz4VI7aFrwAhI-7" source="ytr1R9ynz4VI7aFrwAhI-14" target="ytr1R9ynz4VI7aFrwAhI-10" edge="1">
          <mxGeometry relative="1" as="geometry" />
        </mxCell>
        <mxCell id="ytr1R9ynz4VI7aFrwAhI-14" value="ELB" style="sketch=0;points=[[0,0,0],[0.25,0,0],[0.5,0,0],[0.75,0,0],[1,0,0],[0,1,0],[0.25,1,0],[0.5,1,0],[0.75,1,0],[1,1,0],[0,0.25,0],[0,0.5,0],[0,0.75,0],[1,0.25,0],[1,0.5,0],[1,0.75,0]];outlineConnect=0;fontColor=#232F3E;gradientColor=#F78E04;gradientDirection=north;fillColor=#D05C17;strokeColor=#ffffff;dashed=0;verticalLabelPosition=bottom;verticalAlign=top;align=center;html=1;fontSize=12;fontStyle=0;aspect=fixed;shape=mxgraph.aws4.resourceIcon;resIcon=mxgraph.aws4.elastic_load_balancing;rounded=1;" parent="ytr1R9ynz4VI7aFrwAhI-7" vertex="1">
          <mxGeometry x="281" y="20" width="78" height="78" as="geometry" />
        </mxCell>
        <mxCell id="ytr1R9ynz4VI7aFrwAhI-30" style="edgeStyle=orthogonalEdgeStyle;orthogonalLoop=1;jettySize=auto;html=1;entryX=1;entryY=0.5;entryDx=0;entryDy=0;entryPerimeter=0;rounded=0;strokeColor=none;" parent="ytr1R9ynz4VI7aFrwAhI-7" source="ytr1R9ynz4VI7aFrwAhI-10" target="ytr1R9ynz4VI7aFrwAhI-16" edge="1">
          <mxGeometry relative="1" as="geometry" />
        </mxCell>
        <mxCell id="ytr1R9ynz4VI7aFrwAhI-37" style="edgeStyle=orthogonalEdgeStyle;rounded=1;orthogonalLoop=1;jettySize=auto;html=1;entryX=1;entryY=0.25;entryDx=0;entryDy=0;entryPerimeter=0;dashed=1;strokeColor=#B84048;fillColor=#fff2cc;" parent="ytr1R9ynz4VI7aFrwAhI-7" source="ytr1R9ynz4VI7aFrwAhI-10" target="ytr1R9ynz4VI7aFrwAhI-16" edge="1">
          <mxGeometry relative="1" as="geometry" />
        </mxCell>
        <mxCell id="ytr1R9ynz4VI7aFrwAhI-39" style="edgeStyle=orthogonalEdgeStyle;rounded=1;orthogonalLoop=1;jettySize=auto;html=1;entryX=1;entryY=0.5;entryDx=0;entryDy=0;entryPerimeter=0;dashed=1;strokeColor=#B84048;" parent="ytr1R9ynz4VI7aFrwAhI-7" source="ytr1R9ynz4VI7aFrwAhI-16" target="ytr1R9ynz4VI7aFrwAhI-10" edge="1">
          <mxGeometry relative="1" as="geometry" />
        </mxCell>
        <mxCell id="ytr1R9ynz4VI7aFrwAhI-16" value="&lt;div&gt;RDS Multi-AZ&lt;/div&gt;" style="sketch=0;points=[[0,0,0],[0.25,0,0],[0.5,0,0],[0.75,0,0],[1,0,0],[0,1,0],[0.25,1,0],[0.5,1,0],[0.75,1,0],[1,1,0],[0,0.25,0],[0,0.5,0],[0,0.75,0],[1,0.25,0],[1,0.5,0],[1,0.75,0]];outlineConnect=0;fontColor=#232F3E;gradientColor=#4D72F3;gradientDirection=north;fillColor=#3334B9;strokeColor=#ffffff;dashed=0;verticalLabelPosition=bottom;verticalAlign=top;align=center;html=1;fontSize=12;fontStyle=0;aspect=fixed;shape=mxgraph.aws4.resourceIcon;resIcon=mxgraph.aws4.rds;rounded=1;" parent="ytr1R9ynz4VI7aFrwAhI-7" vertex="1">
          <mxGeometry x="286" y="370" width="78" height="78" as="geometry" />
        </mxCell>
        <mxCell id="ytr1R9ynz4VI7aFrwAhI-41" value="Auto Scaling group" style="points=[[0,0],[0.25,0],[0.5,0],[0.75,0],[1,0],[1,0.25],[1,0.5],[1,0.75],[1,1],[0.75,1],[0.5,1],[0.25,1],[0,1],[0,0.75],[0,0.5],[0,0.25]];outlineConnect=0;gradientColor=none;html=1;whiteSpace=wrap;fontSize=12;fontStyle=0;container=1;pointerEvents=0;collapsible=0;recursiveResize=0;shape=mxgraph.aws4.groupCenter;grIcon=mxgraph.aws4.group_auto_scaling_group;grStroke=1;strokeColor=#D86613;fillColor=none;verticalAlign=top;align=center;fontColor=#D86613;dashed=1;spacingTop=25;rounded=1;" parent="ytr1R9ynz4VI7aFrwAhI-7" vertex="1">
          <mxGeometry x="60" y="130" width="520" height="150" as="geometry" />
        </mxCell>
        <mxCell id="ytr1R9ynz4VI7aFrwAhI-13" value="EC2 INSTANCE 1" style="sketch=0;points=[[0,0,0],[0.25,0,0],[0.5,0,0],[0.75,0,0],[1,0,0],[0,1,0],[0.25,1,0],[0.5,1,0],[0.75,1,0],[1,1,0],[0,0.25,0],[0,0.5,0],[0,0.75,0],[1,0.25,0],[1,0.5,0],[1,0.75,0]];outlineConnect=0;fontColor=#232F3E;gradientColor=#F78E04;gradientDirection=north;fillColor=#D05C17;strokeColor=#ffffff;dashed=0;verticalLabelPosition=bottom;verticalAlign=top;align=center;html=1;fontSize=12;fontStyle=0;aspect=fixed;shape=mxgraph.aws4.resourceIcon;resIcon=mxgraph.aws4.ec2;rounded=1;" parent="ytr1R9ynz4VI7aFrwAhI-41" vertex="1">
          <mxGeometry x="41" y="20" width="78" height="78" as="geometry" />
        </mxCell>
        <mxCell id="ytr1R9ynz4VI7aFrwAhI-10" value="&lt;div&gt;ECS INSTANCE 2&lt;/div&gt;" style="sketch=0;points=[[0,0,0],[0.25,0,0],[0.5,0,0],[0.75,0,0],[1,0,0],[0,1,0],[0.25,1,0],[0.5,1,0],[0.75,1,0],[1,1,0],[0,0.25,0],[0,0.5,0],[0,0.75,0],[1,0.25,0],[1,0.5,0],[1,0.75,0]];outlineConnect=0;fontColor=#232F3E;gradientColor=#F78E04;gradientDirection=north;fillColor=#D05C17;strokeColor=#ffffff;dashed=0;verticalLabelPosition=bottom;verticalAlign=top;align=center;html=1;fontSize=12;fontStyle=0;aspect=fixed;shape=mxgraph.aws4.resourceIcon;resIcon=mxgraph.aws4.ec2;rounded=1;" parent="ytr1R9ynz4VI7aFrwAhI-41" vertex="1">
          <mxGeometry x="390" y="20" width="78" height="78" as="geometry" />
        </mxCell>
        <mxCell id="ytr1R9ynz4VI7aFrwAhI-45" value="Availability Zone 2" style="fillColor=none;strokeColor=#147EBA;dashed=1;verticalAlign=top;fontStyle=0;fontColor=#147EBA;whiteSpace=wrap;html=1;rounded=1;" parent="ytr1R9ynz4VI7aFrwAhI-41" vertex="1">
          <mxGeometry x="329" y="-100" width="200" height="420" as="geometry" />
        </mxCell>
        <mxCell id="ytr1R9ynz4VI7aFrwAhI-25" style="edgeStyle=orthogonalEdgeStyle;rounded=1;orthogonalLoop=1;jettySize=auto;html=1;" parent="ytr1R9ynz4VI7aFrwAhI-7" source="ytr1R9ynz4VI7aFrwAhI-14" target="ytr1R9ynz4VI7aFrwAhI-13" edge="1">
          <mxGeometry relative="1" as="geometry" />
        </mxCell>
        <mxCell id="ytr1R9ynz4VI7aFrwAhI-36" style="edgeStyle=orthogonalEdgeStyle;rounded=1;orthogonalLoop=1;jettySize=auto;html=1;entryX=0;entryY=0.25;entryDx=0;entryDy=0;entryPerimeter=0;" parent="ytr1R9ynz4VI7aFrwAhI-7" source="ytr1R9ynz4VI7aFrwAhI-13" target="ytr1R9ynz4VI7aFrwAhI-16" edge="1">
          <mxGeometry relative="1" as="geometry" />
        </mxCell>
        <mxCell id="ytr1R9ynz4VI7aFrwAhI-38" style="edgeStyle=orthogonalEdgeStyle;rounded=1;orthogonalLoop=1;jettySize=auto;html=1;entryX=0;entryY=0.5;entryDx=0;entryDy=0;entryPerimeter=0;" parent="ytr1R9ynz4VI7aFrwAhI-7" source="ytr1R9ynz4VI7aFrwAhI-16" target="ytr1R9ynz4VI7aFrwAhI-13" edge="1">
          <mxGeometry relative="1" as="geometry" />
        </mxCell>
        <mxCell id="ytr1R9ynz4VI7aFrwAhI-44" value="Availability Zone 1" style="fillColor=none;strokeColor=#147EBA;dashed=1;verticalAlign=top;fontStyle=0;fontColor=#147EBA;whiteSpace=wrap;html=1;rounded=1;" parent="ytr1R9ynz4VI7aFrwAhI-7" vertex="1">
          <mxGeometry x="50" y="30" width="200" height="420" as="geometry" />
        </mxCell>
        <mxCell id="ytr1R9ynz4VI7aFrwAhI-43" value="CLOUDWATCH" style="sketch=0;points=[[0,0,0],[0.25,0,0],[0.5,0,0],[0.75,0,0],[1,0,0],[0,1,0],[0.25,1,0],[0.5,1,0],[0.75,1,0],[1,1,0],[0,0.25,0],[0,0.5,0],[0,0.75,0],[1,0.25,0],[1,0.5,0],[1,0.75,0]];points=[[0,0,0],[0.25,0,0],[0.5,0,0],[0.75,0,0],[1,0,0],[0,1,0],[0.25,1,0],[0.5,1,0],[0.75,1,0],[1,1,0],[0,0.25,0],[0,0.5,0],[0,0.75,0],[1,0.25,0],[1,0.5,0],[1,0.75,0]];outlineConnect=0;fontColor=#232F3E;gradientColor=#F34482;gradientDirection=north;fillColor=#BC1356;strokeColor=#ffffff;dashed=0;verticalLabelPosition=bottom;verticalAlign=top;align=center;html=1;fontSize=12;fontStyle=0;aspect=fixed;shape=mxgraph.aws4.resourceIcon;resIcon=mxgraph.aws4.cloudwatch_2;rounded=1;" parent="1" vertex="1">
          <mxGeometry x="440" y="640" width="58" height="58" as="geometry" />
        </mxCell>
        <mxCell id="ytr1R9ynz4VI7aFrwAhI-46" value="IAM" style="sketch=0;points=[[0,0,0],[0.25,0,0],[0.5,0,0],[0.75,0,0],[1,0,0],[0,1,0],[0.25,1,0],[0.5,1,0],[0.75,1,0],[1,1,0],[0,0.25,0],[0,0.5,0],[0,0.75,0],[1,0.25,0],[1,0.5,0],[1,0.75,0]];outlineConnect=0;fontColor=#232F3E;gradientColor=#F54749;gradientDirection=north;fillColor=#C7131F;strokeColor=#ffffff;dashed=0;verticalLabelPosition=bottom;verticalAlign=top;align=center;html=1;fontSize=12;fontStyle=0;aspect=fixed;shape=mxgraph.aws4.resourceIcon;resIcon=mxgraph.aws4.identity_and_access_management;rounded=1;" parent="1" vertex="1">
          <mxGeometry x="341" y="640" width="58" height="58" as="geometry" />
        </mxCell>
      </root>
    </mxGraphModel>
  </diagram>
</mxfile>
